<svg width="411" height="342" viewBox="0 0 411 342" fill="none" xmlns="http://www.w3.org/2000/svg">
<g clip-path="url(#clip0_9_5)">
<rect x="320.5" y="2.5" width="88" height="337" rx="17.5" fill="#1F9099" stroke="#262626" stroke-width="5"/>
<path d="M2.5 81.175C2.5 85.907 6.05265 89.8554 10.6693 90.3277C7.6591 93.9378 7.8313 99.3366 11.1859 102.742L13.5193 105.111C17.0761 108.721 22.8585 108.721 26.4152 105.111L27.25 104.263V106.3C27.25 111.345 31.2889 115.5 36.35 115.5H39.65C44.7111 115.5 48.75 111.345 48.75 106.3V105.921C52.3263 109.194 57.8561 109.083 61.2997 105.587L63.6332 103.218C67.1234 99.6751 67.1687 93.9741 63.7691 90.375H64.4C69.4611 90.375 73.5 86.2204 73.5 81.175V77.825C73.5 72.7796 69.4611 68.625 64.4 68.625H62.3565L63.7504 67.2099C67.2865 63.6202 67.2865 57.8155 63.7504 54.2258L61.417 51.857C57.9176 48.3047 52.2639 48.2474 48.695 51.6851C48.1965 47.1093 44.3673 43.5 39.65 43.5H36.35C31.2889 43.5 27.25 47.6546 27.25 52.7V53.2997L26.2979 52.3332C22.7412 48.7226 16.9588 48.7226 13.4021 52.3332L11.0686 54.702C7.53252 58.2917 7.53252 64.0964 11.0686 67.6861L11.9935 68.625H11.6C6.5389 68.625 2.5 72.7796 2.5 77.825V81.175Z" fill="#1F9099" stroke="#262626" stroke-width="5"/>
<path d="M100.555 82.751L188.729 170.982L100.52 259.249C89.8267 269.949 89.8267 287.297 100.52 297.998L123.981 321.474C134.675 332.175 152.015 332.175 162.709 321.474L293.445 190.653C298.419 185.675 301.079 179.259 301.426 172.744C301.99 165.074 299.341 157.212 293.48 151.348L162.744 20.526C152.05 9.82468 134.71 9.82468 124.016 20.526L100.555 44.0022C89.8619 54.7026 89.8618 72.0506 100.555 82.751Z" fill="#1F9099" stroke="#262626" stroke-width="5"/>
</g>
<defs>
<clipPath id="clip0_9_5">
<rect width="411" height="342" fill="white"/>
</clipPath>
</defs>
</svg>
