<svg width="300" height="100" viewBox="0 0 300 100" fill="none" xmlns="http://www.w3.org/2000/svg">
    <g clip-path="url(#clip0_6_88)">
        <path
            d="M5.68377 44.2521H0V0.747924H12.3398C17.2009 0.747924 20.2671 6.41967 20.2671 14.6468C20.2671 22.874 17.2009 28.5457 12.3398 28.5457H5.68377V44.2521ZM5.68377 8.97507V20.3186H11.6667C13.3494 20.3186 14.3964 18.8227 14.3964 16.018V13.2756C14.3964 10.4709 13.3494 8.97507 11.6667 8.97507H5.68377Z"
            fill="#262626" />
        <path
            d="M29.8491 28.2964V44.2521H24.1654V0.747924H36.5425C41.3662 0.747924 44.4325 6.35734 44.4325 14.6468C44.4325 20.5055 42.862 25.1801 39.6835 27.1745L44.8064 44.2521H38.4869L33.925 28.2964H29.8491ZM29.8491 20.3186H35.832C37.5147 20.3186 38.5617 18.8227 38.5617 16.018V13.2756C38.5617 10.4709 37.5147 8.97507 35.832 8.97507H29.8491V20.3186Z"
            fill="#262626" />
        <path
            d="M59.0929 45C52.1752 45 47.6132 37.2715 47.6132 22.5C47.6132 7.72853 52.1752 0 59.0929 0C66.0107 0 70.5727 7.72853 70.5727 22.5C70.5727 37.2715 66.0107 45 59.0929 45ZM59.0929 36.5859C62.4957 36.5859 64.5523 32.6593 64.5523 25.741V19.259C64.5523 12.3407 62.4957 8.41413 59.0929 8.41413C55.6902 8.41413 53.6335 12.3407 53.6335 19.259V25.741C53.6335 32.6593 55.6902 36.5859 59.0929 36.5859Z"
            fill="#262626" />
        <path
            d="M91.5079 44.2521V37.3338H91.3209C90.947 41.6967 88.5538 45 84.6275 45C78.6446 45 73.9331 37.2715 73.9331 22.687C73.9331 8.04017 78.682 0 85.7493 0C90.3861 0 93.8636 3.42798 95.8081 10.097L91.1713 14.5222C90.3861 11.1565 88.7782 8.41413 85.7493 8.41413C82.2344 8.41413 79.9534 11.7798 79.9534 19.0097V25.9903C79.9534 33.2202 82.2344 36.5859 85.7493 36.5859C88.5912 36.5859 90.8722 34.3421 90.8722 30.1039V27.9224H86.0111V20.0069H96.2942V44.2521H91.5079Z"
            fill="#262626" />
        <path
            d="M107.129 28.2964V44.2521H101.445V0.747924H113.822C118.646 0.747924 121.712 6.35734 121.712 14.6468C121.712 20.5055 120.142 25.1801 116.963 27.1745L122.086 44.2521H115.767L111.205 28.2964H107.129ZM107.129 20.3186H113.112C114.794 20.3186 115.841 18.8227 115.841 16.018V13.2756C115.841 10.4709 114.794 8.97507 113.112 8.97507H107.129V20.3186Z"
            fill="#262626" />
        <path
            d="M148.255 44.2521H142.347L140.477 33.9058H131.765L129.895 44.2521H124.136L132.737 0.747924H139.767L148.255 44.2521ZM139.094 25.8657L136.177 9.34903H135.99L133.111 25.8657H139.094Z"
            fill="#262626" />
        <path
            d="M171.011 44.2521V15.7064H170.899L168.992 22.0637L163.907 37.4584L158.933 22.126L156.952 15.2701H156.839V44.2521H151.492V0.747924H157.512L163.907 21.1288H163.981L170.301 0.747924H176.359V44.2521H171.011Z"
            fill="#262626" />
        <path
            d="M201.275 44.2521V15.7064H201.163L199.256 22.0637L194.17 37.4584L189.197 22.126L187.215 15.2701H187.103V44.2521H181.756V0.747924H187.776L194.17 21.1288H194.245L200.565 0.747924H206.622V44.2521H201.275Z"
            fill="#262626" />
        <path
            d="M229.781 44.2521H212.019V0.747924H229.781V9.16205H217.703V18.0748H228.061V26.4266H217.703V35.838H229.781V44.2521Z"
            fill="#262626" />
        <path
            d="M240.043 28.2964V44.2521H234.359V0.747924H246.736C251.56 0.747924 254.626 6.35734 254.626 14.6468C254.626 20.5055 253.056 25.1801 249.877 27.1745L255 44.2521H248.681L244.119 28.2964H240.043ZM240.043 20.3186H246.026C247.708 20.3186 248.755 18.8227 248.755 16.018V13.2756C248.755 10.4709 247.708 8.97507 246.026 8.97507H240.043V20.3186Z"
            fill="#262626" />
        <path
            d="M0 100V55H45.7644C61.2892 55 70.6041 59.5774 70.6041 66.5401C70.6041 73.4384 62.6392 76.0172 53.0543 76.2106V76.5974C61.9642 76.5974 74.249 79.4341 74.249 87.1705C74.249 94.2622 63.8541 100 49.9493 100H0ZM20.5197 81.4327V91.7479H44.1444C49.5443 91.7479 52.9193 90.265 52.9193 87.6862V85.4943C52.9193 82.9155 49.5443 81.4327 44.1444 81.4327H20.5197ZM20.5197 63.2521V73.4384H40.9045C46.3044 73.4384 49.5443 71.8911 49.5443 69.3123V67.3782C49.5443 64.7994 46.3044 63.2521 40.9045 63.2521H20.5197Z"
            fill="#262626" />
        <path
            d="M167.444 100H146.114L139.365 89.298H107.91L101.16 100H80.3703L111.42 55H136.8L167.444 100ZM134.37 80.9814L123.84 63.8968H123.165L112.77 80.9814H134.37Z"
            fill="#262626" />
        <path
            d="M201.001 83.4957V100H180.481V55H225.165C242.58 55 253.65 60.8023 253.65 69.3768C253.65 75.437 247.98 80.2722 236.505 82.3352L255 100H232.185L215.716 83.4957H201.001ZM201.001 75.2436H222.6C228.675 75.2436 232.455 73.6963 232.455 70.7951V67.9585C232.455 65.0573 228.675 63.51 222.6 63.51H201.001V75.2436Z"
            fill="#262626" />
        <rect x="261" width="39" height="100" fill="#262626" />
    </g>
    <defs>
        <clipPath id="clip0_6_88">
            <rect width="300" height="100" fill="white" />
        </clipPath>
    </defs>
</svg>