<?xml version="1.0" standalone="no"?>
<!DOCTYPE svg PUBLIC "-//W3C//DTD SVG 20010904//EN"
 "http://www.w3.org/TR/2001/REC-SVG-20010904/DTD/svg10.dtd">
<svg version="1.0" xmlns="http://www.w3.org/2000/svg"
 width="642.000000pt" height="642.000000pt" viewBox="0 0 642.000000 642.000000"
 preserveAspectRatio="xMidYMid meet">
<metadata>
Created by potrace 1.14, written by Peter Selinger 2001-2017
</metadata>
<g transform="translate(0.000000,642.000000) scale(0.100000,-0.100000)"
fill="#000000" stroke="none">
<path d="M2680 6389 c-70 -43 -127 -125 -239 -349 -40 -80 -98 -182 -128 -228
-112 -169 -157 -173 -553 -58 -247 72 -273 78 -349 75 -87 -3 -125 -26 -156
-95 -25 -55 -27 -84 -30 -349 -3 -263 -7 -336 -24 -390 -36 -121 -89 -147
-453 -221 -221 -45 -310 -71 -363 -108 -117 -81 -99 -163 122 -581 86 -161
107 -220 108 -290 0 -101 -37 -143 -328 -378 -204 -165 -266 -237 -269 -315
-3 -90 67 -160 362 -360 237 -160 292 -221 291 -319 0 -72 -69 -270 -148 -428
-62 -124 -105 -297 -89 -360 7 -29 46 -69 86 -90 36 -18 128 -43 190 -50 25
-3 56 -8 70 -10 24 -5 110 -14 180 -20 107 -9 247 -39 295 -63 89 -44 122
-134 140 -387 19 -279 26 -339 51 -415 55 -163 159 -168 528 -21 250 100 367
126 432 95 19 -9 54 -37 79 -61 51 -52 56 -60 220 -322 246 -391 312 -386 685
50 75 88 167 176 215 207 88 57 182 30 440 -123 485 -287 535 -265 660 285 45
199 88 312 137 357 49 46 99 56 283 53 477 -8 506 -7 560 20 38 19 55 35 72
69 34 68 25 160 -42 426 -65 256 -79 378 -50 434 36 71 122 130 315 216 283
126 392 197 421 271 14 39 11 69 -15 126 -34 77 -79 132 -274 347 -183 199
-218 292 -159 413 25 50 118 183 222 318 149 191 198 306 161 378 -37 72 -127
122 -411 227 -99 37 -207 81 -239 98 -66 35 -126 92 -135 128 -10 41 -5 241 8
299 14 68 18 87 26 136 3 22 8 53 11 69 27 156 26 272 -4 332 -39 76 -149 99
-347 73 -38 -5 -97 -12 -130 -15 -33 -4 -62 -8 -65 -10 -8 -5 -162 -18 -230
-19 -74 -2 -144 23 -181 65 -44 49 -78 130 -154 359 -109 332 -159 410 -265
410 -34 0 -133 -35 -170 -60 -14 -9 -59 -39 -100 -66 -41 -26 -81 -54 -87 -60
-7 -7 -29 -22 -50 -35 -21 -13 -40 -26 -43 -30 -9 -12 -145 -95 -190 -116
-142 -65 -205 -34 -485 243 -174 171 -278 244 -350 244 -16 0 -46 -10 -65 -21z"/>
</g>
</svg>
